<?xml version="1.0" standalone="no"?>
<!DOCTYPE svg PUBLIC "-//W3C//DTD SVG 20010904//EN"
 "http://www.w3.org/TR/2001/REC-SVG-20010904/DTD/svg10.dtd">
<svg version="1.0" xmlns="http://www.w3.org/2000/svg"
 width="512.000000pt" height="512.000000pt" viewBox="0 0 512.000000 512.000000"
 preserveAspectRatio="xMidYMid meet">

<g transform="translate(0.000000,512.000000) scale(0.100000,-0.100000)"
fill="#000000" stroke="none">
<path d="M2791 3903 c-59 -35 -74 -74 -65 -164 6 -66 6 -69 -15 -69 -17 0 -21
6 -21 30 0 42 -23 84 -63 114 -51 39 -83 41 -173 13 -43 -13 -117 -30 -162
-37 -62 -9 -91 -19 -113 -37 -27 -23 -48 -76 -46 -118 0 -11 0 -43 -1 -71 -2
-43 -6 -53 -28 -64 -30 -17 -64 -72 -95 -155 -12 -33 -30 -79 -40 -102 -22
-49 -24 -63 -6 -63 15 0 41 38 43 66 3 24 73 202 83 208 3 2 13 -1 22 -7 22
-16 9 -118 -26 -210 -14 -38 -27 -91 -28 -118 -3 -38 -9 -53 -26 -65 -19 -13
-21 -24 -21 -77 1 -51 -6 -83 -43 -177 -24 -63 -40 -117 -35 -119 15 -5 23 8
59 108 l34 93 5 -43 c3 -24 11 -54 18 -66 8 -15 12 -72 11 -178 -1 -145 2
-177 17 -163 3 3 6 64 6 134 1 71 3 134 5 141 5 14 73 -23 74 -40 0 -7 1 -34
2 -61 3 -74 27 -74 27 1 l0 58 73 0 73 0 -4 -51 c-2 -28 1 -61 7 -72 6 -12 16
-69 23 -127 11 -98 10 -108 -9 -153 -23 -53 -43 -130 -43 -167 0 -13 -14 -59
-31 -102 -35 -87 -79 -244 -79 -282 0 -13 -7 -32 -16 -42 -26 -28 -43 -89 -44
-152 0 -38 -7 -72 -20 -97 -11 -22 -23 -59 -26 -82 -6 -47 -6 -46 76 -91 l35
-19 -69 6 c-53 5 -74 3 -92 -9 -25 -16 -68 -14 -151 7 -39 10 -46 8 -77 -16
l-35 -26 -12 21 c-8 15 -8 19 0 15 15 -9 14 7 -1 22 -16 16 -19 42 -6 42 6 0
3 9 -7 20 -12 13 -14 20 -5 20 9 0 8 6 -4 24 -10 15 -12 27 -6 31 6 3 10 11
10 16 0 6 -5 7 -12 3 -7 -4 -8 -3 -4 5 4 6 1 24 -7 41 -11 21 -12 30 -4 33 8
2 6 10 -6 21 -9 10 -17 21 -17 26 0 5 -6 10 -12 13 -7 2 -1 2 14 0 29 -5 39
11 13 21 -9 3 -13 14 -11 28 2 13 -1 29 -7 36 -10 13 -15 58 -17 162 l-2 55
-24 -64 c-13 -35 -24 -74 -24 -87 0 -12 -5 -26 -11 -30 -8 -4 -7 -9 2 -14 10
-7 9 -14 -5 -35 -10 -15 -12 -24 -5 -20 14 9 5 -10 -19 -37 -10 -12 -11 -18
-4 -18 7 0 12 -7 12 -15 0 -8 -5 -15 -11 -15 -8 0 -8 -5 1 -15 7 -8 9 -15 4
-16 -5 0 0 -4 11 -9 19 -8 19 -9 -2 -9 -13 -1 -23 -6 -23 -12 0 -5 5 -7 10 -4
13 8 13 -11 -1 -37 -8 -15 -8 -27 0 -44 8 -19 8 -24 -4 -24 -8 0 -15 -5 -15
-11 0 -5 4 -7 10 -4 6 3 7 -1 4 -9 -8 -21 -17 -20 -39 4 -15 16 -15 20 -3 15
10 -4 17 1 21 14 3 11 0 22 -7 24 -14 5 -15 39 -1 50 6 4 5 10 -4 16 -10 6
-15 37 -18 102 -2 51 -6 95 -8 97 -6 6 -26 -46 -29 -73 -1 -12 -5 -25 -7 -30
-3 -6 -5 -35 -5 -66 1 -38 -3 -55 -10 -52 -7 3 -10 -5 -7 -21 3 -15 -1 -34 -8
-43 -11 -13 -11 -15 -1 -9 21 13 10 -26 -13 -46 -18 -15 -18 -17 -3 -18 21 0
13 -30 -9 -30 -8 0 -11 -4 -8 -10 3 -5 0 -20 -6 -32 -11 -21 -11 -22 5 -9 9 8
19 11 23 7 3 -3 1 -6 -5 -6 -7 0 -12 -6 -12 -14 0 -7 -7 -19 -15 -26 -8 -7
-15 -21 -15 -31 0 -16 -8 -19 -42 -19 -38 0 -48 -6 -92 -50 -35 -36 -59 -51
-85 -55 -92 -14 -142 -28 -215 -60 -43 -18 -102 -37 -132 -41 -111 -13 -48
-24 144 -24 230 0 437 14 535 36 43 10 73 12 78 7 20 -20 -169 -47 -419 -59
-78 -4 -141 -8 -140 -9 2 -2 73 -10 158 -20 210 -23 224 -33 77 -55 -115 -18
327 -1 778 29 l120 8 -145 3 c-277 4 -270 16 15 24 393 13 1367 -5 1335 -24
-3 -1 -68 -5 -145 -9 l-140 -6 175 -20 c145 -17 228 -20 479 -17 284 2 381 10
381 31 0 8 -46 21 -125 36 -68 12 -271 35 -445 50 -102 9 -189 20 -194 25 -26
26 217 24 654 -5 314 -21 340 -22 340 -15 0 4 -39 16 -86 26 l-85 19 -20 45
c-11 25 -27 65 -36 90 -21 63 -38 87 -68 94 -14 4 -52 27 -84 51 -32 25 -80
54 -105 65 -42 17 -50 26 -76 84 -28 63 -30 65 -74 71 -25 4 -51 14 -58 23
-10 12 -10 14 0 8 18 -11 44 18 29 33 -16 16 33 -2 68 -25 23 -15 25 -15 19 0
-8 20 9 21 26 1 7 -8 17 -15 22 -15 6 0 5 6 -2 15 -6 8 -9 19 -5 25 3 5 -1 10
-9 10 -19 0 -21 11 -4 28 9 9 7 13 -8 18 -32 10 -85 38 -91 48 -4 5 -1 6 4 3
6 -4 14 0 17 9 4 11 -6 27 -29 48 -41 38 -50 74 -13 55 13 -7 23 -8 25 -2 2 5
17 7 33 5 19 -3 30 0 30 7 0 7 -5 9 -11 5 -6 -3 -21 -2 -32 4 -12 6 -35 15
-52 20 -17 5 -31 17 -33 28 -3 15 -1 17 9 7 18 -18 34 -16 20 1 -10 12 -8 13
11 9 23 -5 23 -5 3 11 -11 10 -15 15 -8 12 16 -8 40 3 47 21 5 11 2 13 -10 9
-8 -3 -24 -1 -35 4 -16 9 -17 15 -9 31 6 11 8 24 5 29 -3 6 5 10 18 10 14 0
27 7 31 15 4 13 -1 14 -35 9 -31 -5 -39 -4 -37 7 2 8 9 19 17 25 12 10 11 17
-7 48 -17 28 -24 61 -29 138 -8 128 -21 106 -24 -40 -1 -84 -5 -112 -15 -116
-8 -3 -14 -10 -14 -16 0 -6 5 -8 12 -4 7 4 8 3 4 -5 -4 -6 -2 -18 4 -26 13
-16 10 -18 -35 -28 -19 -5 -19 -5 3 -12 32 -11 27 -23 -13 -31 -39 -7 -50 -36
-12 -33 55 5 59 2 35 -31 -12 -16 -28 -30 -35 -30 -7 0 -13 -4 -13 -10 0 -5 5
-10 11 -10 6 0 9 -6 6 -14 -4 -10 0 -12 14 -9 10 3 19 3 19 -1 0 -8 -55 -35
-82 -40 -13 -3 -25 -5 -28 -6 -3 0 3 -5 13 -11 9 -6 26 -7 37 -4 12 4 20 2 20
-5 0 -8 7 -9 18 -5 9 4 23 9 31 12 11 5 11 2 2 -15 -6 -12 -23 -25 -37 -28
-19 -5 -22 -9 -13 -20 6 -7 8 -18 4 -24 -10 -17 17 -11 38 7 15 13 19 14 15 4
-7 -24 -51 -51 -86 -54 -42 -3 -42 -17 1 -17 l32 0 -30 -20 c-16 -11 -31 -24
-31 -30 -1 -5 -3 -12 -4 -15 -1 -3 -3 -11 -4 -17 0 -7 -17 -14 -36 -16 -19 -2
-46 -12 -61 -23 -26 -18 -88 -27 -90 -11 0 4 -2 15 -4 24 -2 9 -6 81 -9 160
-3 79 -9 200 -12 271 -5 90 -3 127 5 127 16 0 14 21 -3 34 -20 15 -28 216 -9
216 7 0 13 11 13 25 0 16 -6 25 -16 25 -14 0 -15 15 -13 118 2 64 -1 124 -6
132 -15 24 -14 372 1 390 18 21 31 130 15 130 -6 0 -11 7 -11 15 0 8 -12 18
-26 21 -21 5 -33 0 -63 -30 -34 -33 -40 -36 -65 -26 -15 5 -31 8 -35 6 -10 -7
-75 16 -96 34 -11 9 -15 22 -10 39 45 179 44 350 -1 396 -15 14 -15 19 0 55 9
22 16 49 16 59 0 11 7 27 16 35 10 10 13 24 9 37 -9 27 8 39 58 39 52 0 50 25
-3 34 -35 5 -42 11 -62 53 -39 81 -115 108 -187 66z m243 -989 c43 -12 52 -12
72 1 13 8 32 15 43 15 25 0 25 1 48 -435 4 -66 7 -147 7 -180 1 -33 4 -65 8
-71 4 -6 9 -66 10 -133 2 -66 7 -121 11 -121 5 0 7 -70 5 -155 -2 -85 0 -156
3 -158 4 -1 10 -64 14 -139 l7 -138 -25 0 c-22 0 -27 6 -33 35 -9 48 -22 57
-67 43 -29 -9 -44 -8 -81 6 -24 9 -49 23 -55 30 -6 6 -11 43 -12 82 -1 38 -6
78 -13 89 -22 42 -22 164 0 296 15 90 15 99 -1 155 -10 32 -19 75 -21 94 -10
102 -18 146 -46 258 -24 98 -28 126 -18 132 12 7 10 70 -6 180 l-5 35 22 -34
c12 -18 32 -61 44 -95 20 -52 26 -61 50 -64 15 -2 25 0 23 5 -19 40 -29 65
-44 106 -9 26 -34 67 -56 91 -35 41 -37 47 -26 71 11 24 15 26 52 20 23 -4 63
-13 90 -21z m183 -131 c-3 -10 -5 -2 -5 17 0 19 2 27 5 18 2 -10 2 -26 0 -35z
m-570 -510 c31 -40 63 -114 63 -146 0 -19 7 -51 15 -70 8 -20 14 -58 14 -84
-1 -26 2 -67 6 -90 6 -36 5 -43 -9 -43 -9 0 -16 -5 -16 -11 0 -5 -4 -8 -9 -5
-13 8 -71 -17 -71 -31 0 -20 30 -15 31 5 0 10 3 12 6 5 2 -7 9 -13 15 -13 6 0
7 7 4 16 -4 10 -1 14 6 12 7 -3 13 -14 13 -26 0 -12 4 -22 9 -21 5 0 13 -5 17
-13 7 -10 9 -8 9 7 1 18 2 18 11 -3 5 -13 6 -28 3 -34 -10 -16 6 -97 24 -114
20 -20 23 -78 11 -159 -16 -99 -17 -100 -43 -76 -18 17 -35 21 -89 21 -65 0
-67 -1 -83 -32 -10 -18 -24 -39 -33 -46 -27 -21 -129 -72 -146 -72 -21 0 -95
69 -95 89 0 14 2 14 10 1 17 -27 11 -1 -9 36 -17 32 -18 40 -6 77 19 63 33 94
43 101 6 3 7 20 2 40 -5 22 -3 41 6 57 7 13 13 33 14 43 0 11 8 29 18 40 10
12 29 46 42 76 12 30 44 96 71 145 26 50 53 113 59 140 6 28 20 70 30 95 10
25 21 57 25 73 6 32 13 34 32 10z m98 -453 c3 -5 1 -10 -4 -10 -6 0 -11 5 -11
10 0 6 2 10 4 10 3 0 8 -4 11 -10z m-460 -310 c3 -5 1 -10 -4 -10 -6 0 -11 5
-11 10 0 6 2 10 4 10 3 0 8 -4 11 -10z m1319 -24 c-3 -9 -10 -13 -16 -10 -5 3
-4 12 3 20 15 18 22 13 13 -10z m-1948 -22 c-9 -8 -12 -22 -9 -31 6 -15 5 -16
-9 -3 -11 11 -12 17 -4 22 6 4 7 8 3 8 -4 0 -2 6 5 14 7 8 16 12 21 9 4 -2 1
-11 -7 -19z m631 20 c-3 -3 -12 -4 -19 -1 -8 3 -5 6 6 6 11 1 17 -2 13 -5z
m-597 -28 c0 -2 -7 -9 -15 -16 -13 -11 -14 -10 -9 4 5 14 24 23 24 12z m-107
-197 c-6 -6 -9 -18 -6 -25 3 -8 0 -14 -6 -14 -15 0 -14 37 2 43 20 9 22 8 10
-4z m1240 -26 c-7 -2 -21 -2 -30 0 -10 3 -4 5 12 5 17 0 24 -2 18 -5z m-1147
-50 c-10 -10 -19 5 -10 18 6 11 8 11 12 0 2 -7 1 -15 -2 -18z m637 -80 c-7 -2
-21 -2 -30 0 -10 3 -4 5 12 5 17 0 24 -2 18 -5z m-610 -220 c-13 -2 -33 -2
-45 0 -13 2 -3 4 22 4 25 0 35 -2 23 -4z m0 -20 c-13 -2 -33 -2 -45 0 -13 2
-3 4 22 4 25 0 35 -2 23 -4z m180 0 c-7 -2 -21 -2 -30 0 -10 3 -4 5 12 5 17 0
24 -2 18 -5z"/>
<path d="M3198 1933 c-19 -38 -34 -53 -73 -73 -28 -14 -59 -30 -70 -37 -19
-12 -19 -12 3 -13 13 0 21 4 18 9 -3 5 1 11 9 15 10 3 15 -1 15 -11 0 -9 3
-13 8 -9 4 4 7 12 7 17 0 5 4 9 8 9 4 -1 15 6 24 15 19 19 31 11 14 -9 -7 -8
-11 -25 -10 -38 4 -28 -18 -71 -32 -63 -5 4 -9 -3 -9 -14 0 -10 -6 -22 -12
-24 -7 -3 -3 -6 10 -6 12 -1 22 -6 22 -12 0 -14 -32 -73 -42 -77 -5 -2 -8 -8
-8 -13 0 -6 5 -7 11 -3 17 10 30 -18 16 -35 -10 -12 -9 -14 7 -8 16 6 17 5 6
-8 -11 -13 -10 -15 6 -9 18 5 18 4 -1 -12 -18 -15 -19 -16 -1 -10 10 3 26 1
35 -6 14 -12 14 -11 2 5 -12 15 -11 17 18 17 29 0 30 1 19 25 -9 21 -8 28 7
45 18 19 17 20 -5 20 -16 0 -21 4 -16 16 4 9 1 24 -6 33 -11 14 -11 14 4 3 11
-9 18 -10 23 -2 3 5 2 10 -3 10 -14 0 -10 34 6 46 13 9 13 12 -2 17 -21 8 -21
37 0 37 14 0 14 1 0 16 -18 18 -21 34 -6 34 14 0 12 27 -2 33 -8 3 -7 6 4 6
12 1 16 8 14 29 -2 15 1 38 6 51 16 44 0 33 -24 -16z m-77 -316 c-10 -9 -11
-8 -5 6 3 10 9 15 12 12 3 -3 0 -11 -7 -18z"/>
<path d="M1501 2397 c9 -7 19 -25 22 -42 3 -16 4 -25 1 -18 -3 7 -13 9 -22 6
-14 -6 -15 -4 -4 9 10 13 10 17 -1 21 -12 5 -14 -2 -8 -44 1 -4 11 -6 24 -5
18 1 22 7 20 30 -2 30 -19 56 -37 56 -6 0 -4 -6 5 -13z"/>
<path d="M1743 2354 c-9 -4 -9 -11 -1 -29 6 -14 16 -22 21 -18 7 4 8 -1 4 -13
-7 -18 -6 -18 9 1 15 20 15 20 35 -4 10 -13 19 -19 19 -14 0 6 -9 20 -20 33
-11 13 -20 27 -20 32 0 4 -5 8 -11 8 -8 0 -8 -4 0 -14 10 -12 9 -14 -6 -12
-10 2 -17 11 -17 20 1 9 1 16 0 15 0 0 -6 -3 -13 -5z"/>
<path d="M1447 2326 c-4 -10 -1 -13 8 -9 8 3 12 9 9 14 -7 12 -11 11 -17 -5z"/>
<path d="M1451 2284 c0 -11 3 -14 6 -6 3 7 2 16 -1 19 -3 4 -6 -2 -5 -13z"/>
<path d="M1781 2277 c-14 -18 8 -48 55 -77 24 -15 39 -19 46 -12 6 6 6 12 -1
16 -5 4 -8 13 -5 20 3 8 0 17 -7 22 -9 5 -10 2 -5 -12 4 -10 4 -15 0 -11 -4 4
-14 1 -23 -5 -13 -10 -14 -10 -4 1 14 17 -6 41 -34 41 -14 0 -15 2 -4 9 8 5 9
11 3 15 -5 3 -15 0 -21 -7z m89 -77 c0 -5 -2 -10 -4 -10 -3 0 -8 5 -11 10 -3
6 -1 10 4 10 6 0 11 -4 11 -10z"/>
<path d="M3800 889 c47 -4 114 -7 150 -6 l65 0 -70 7 c-38 4 -106 7 -150 7
l-80 0 85 -8z"/>
</g>
</svg>
